<svg width="24" height="24" viewBox="0 0 24 24" fill="none" xmlns="http://www.w3.org/2000/svg">
<path d="M11.6245 22.7584C10.0677 22.2442 9.54136 19.5287 7.80596 19.9609C7.1674 20.1199 6.95867 20.6262 6.29248 20.1776C5.64898 19.7442 5.37714 18.3375 4.97412 17.6747C3.58605 15.3898 2.17652 13.6212 2.20911 10.7634C2.26769 5.63456 6.47646 1.14962 11.6245 1.21322C16.6773 1.27598 21.0758 5.56845 21.0399 10.7634C21.0205 13.5421 19.7966 15.4061 18.279 17.5789C17.8694 18.1651 17.4474 19.4199 16.7474 19.7622C16.2194 20.0203 15.8011 19.6919 15.283 19.7626C13.5554 19.999 13.2766 22.3437 11.6245 22.7584Z" fill="#FFC100"/>
<path d="M11.6245 1.4252C16.5812 1.47583 20.903 5.64151 20.8308 10.7633C20.8312 13.4327 19.6799 15.3804 18.1301 17.4172C17.7312 17.9415 17.4033 18.8055 16.8419 19.1888C16.0433 19.7335 15.8597 19.2469 15.0504 19.4812C13.5192 19.9248 13.1623 22.0473 11.6249 22.4612C10.0776 21.9511 9.59377 19.4775 7.88807 19.6294C7.25901 19.6854 7.00449 20.0545 6.40801 19.621C5.82844 19.1997 5.52732 18.0494 5.11976 17.4499C3.66693 15.3156 2.38322 13.5005 2.41828 10.7633C2.46819 5.73565 6.57466 1.35198 11.6245 1.4252ZM11.6245 1.00093C9.09176 0.963275 6.60931 2.06997 4.81905 3.86034C3.00156 5.6503 2.01815 8.21347 2 10.7633C2.02021 13.6356 3.3295 15.6206 4.81905 17.9168C5.13585 18.6879 5.51247 20.5009 6.29127 20.7967C7.32171 21.1884 6.89353 20.3151 7.93922 20.1202C9.65111 19.8017 10.0616 22.5959 11.6245 22.9996C13.1706 22.4473 13.5959 20.052 15.3098 19.9963C15.7446 19.9821 16.1551 20.4373 16.6443 20.3147C17.473 20.1076 18.1029 18.4373 18.43 17.8231C19.9893 15.6716 21.2891 13.5373 21.2491 10.7624C21.2862 8.19339 20.1951 5.6754 18.43 3.8595C16.6653 2.01725 14.1383 1.01934 11.6245 1.00093Z" fill="black"/>
<path d="M10.4613 7.1266C10.4613 7.96258 10.1276 10.3333 9.22213 10.3174C8.29359 10.3011 7.98297 8.02241 7.98297 7.1266C7.98297 6.23079 8.29565 3.95171 9.22213 3.93581C10.1296 3.91991 10.4613 6.29104 10.4613 7.1266Z" fill="black"/>
<path d="M15.2661 7.1266C15.2661 7.96258 14.9324 10.3333 14.027 10.3174C13.0984 10.3011 12.7878 8.02241 12.7878 7.1266C12.7878 6.23079 13.1005 3.95171 14.027 3.93581C14.9345 3.91991 15.2661 6.29104 15.2661 7.1266Z" fill="black"/>
<path d="M11.6245 18.2224C7.65086 18.2345 4.17758 14.2542 4.17841 10.3944C4.17841 10.2538 4.29061 10.14 4.42921 10.14C4.56781 10.14 4.68001 10.2538 4.68001 10.3944C4.68001 14.1977 7.86165 17.4567 11.6241 17.4567C15.3841 17.4567 18.569 14.1998 18.5682 10.3944C18.5682 10.2538 18.6804 10.14 18.819 10.14C18.9576 10.14 19.0698 10.2538 19.0698 10.3944C19.0702 14.2538 15.5973 18.2345 11.6237 18.2224H11.6245Z" fill="black"/>
<path d="M5.50999 11.176C5.43327 11.176 5.35737 11.1404 5.30828 11.0731C5.10368 10.7927 4.78357 10.632 4.42923 10.632C4.07572 10.632 3.75561 10.7927 3.55143 11.0731C3.46892 11.186 3.31217 11.2099 3.20039 11.1266C3.0886 11.0433 3.0655 10.8839 3.14758 10.7705C3.44706 10.3592 3.91402 10.1233 4.42882 10.1233H4.42923C4.94404 10.1233 5.4114 10.3592 5.71171 10.7705C5.79421 10.8835 5.77069 11.0429 5.65932 11.1266C5.61436 11.1601 5.56197 11.1764 5.5104 11.1764L5.50999 11.176Z" fill="black"/>
<path d="M19.9002 11.1932C19.8235 11.1932 19.7476 11.1576 19.6985 11.0902C19.4943 10.8099 19.1734 10.6492 18.8194 10.6492C18.4659 10.6492 18.1458 10.8099 17.9416 11.0902C17.8591 11.2032 17.702 11.2271 17.5906 11.1438C17.4792 11.0601 17.4557 10.9011 17.5382 10.7877C17.8377 10.3768 18.3046 10.1404 18.8194 10.1404H18.8198C19.3347 10.1404 19.802 10.3764 20.1023 10.7877C20.1848 10.9007 20.1613 11.0601 20.0499 11.1438C20.005 11.1773 19.9526 11.1936 19.9006 11.1936L19.9002 11.1932Z" fill="black"/>
</svg>
